<svg width="85" height="65" viewBox="0 0 85 65" fill="none" xmlns="http://www.w3.org/2000/svg">
<path d="M72.036 5.56091C66.4467 2.99523 60.5438 1.17674 54.4796 0.152344C53.65 1.62554 52.9048 3.14468 52.2475 4.70241C45.8002 3.75814 39.2497 3.75814 32.8024 4.70241C32.2015 3.28588 31.3001 1.48302 30.5703 0.152344C24.4739 1.15695 18.5401 2.97608 12.9281 5.56091C3.04077 19.5767 -1.41394 36.7091 0.393965 53.7658V53.7658C6.89011 58.5407 14.1465 62.1834 21.8565 64.54C23.6069 62.2073 25.1441 59.7219 26.4495 57.114C23.9426 56.1822 21.5283 55.0182 19.2381 53.6371L20.998 52.2635C27.7084 55.4354 35.0383 57.0805 42.4606 57.0805C49.8828 57.0805 57.2128 55.4354 63.9232 52.2635C64.5241 52.7356 65.0821 53.2078 65.726 53.6371C63.4016 55.0102 60.9595 56.1738 58.4287 57.114C59.7764 59.7261 61.3567 62.2115 63.1505 64.54C70.8606 62.1834 78.1169 58.5407 84.6131 53.7658C86.4046 36.704 81.9349 19.5726 72.036 5.56091V5.56091ZM28.4241 44.1935C27.3581 44.1333 26.3144 43.8632 25.353 43.3988C24.3916 42.9344 23.5313 42.2848 22.8215 41.4872C22.1116 40.6897 21.5662 39.7598 21.2165 38.751C20.8667 37.7422 20.7196 36.6743 20.7834 35.6085C20.7138 34.5414 20.8569 33.4712 21.2044 32.4599C21.552 31.4487 22.0971 30.5165 22.808 29.7178C23.5189 28.919 24.3815 28.2695 25.3456 27.8069C26.3097 27.3444 27.3561 27.0781 28.4241 27.0235C29.4939 27.0724 30.5432 27.3348 31.5101 27.7955C32.477 28.2561 33.3419 28.9055 34.0539 29.7055C34.7659 30.5056 35.3106 31.44 35.656 32.4538C36.0013 33.4675 36.1403 34.5402 36.0647 35.6085C36.147 37.7322 35.3926 39.8033 33.9638 41.3766C32.535 42.9499 30.5458 43.8997 28.4241 44.0218V44.1935ZM56.6259 44.1935C54.477 44.0608 52.4678 43.0837 51.0365 41.4755C49.6052 39.8672 48.8678 37.7583 48.9852 35.6085C48.9214 34.5427 49.0685 33.4748 49.4183 32.466C49.768 31.4572 50.3134 30.5273 51.0233 29.7298C51.7331 28.9322 52.5934 28.2826 53.5548 27.8182C54.5162 27.3538 55.5599 27.0837 56.6259 27.0235C57.6958 27.0724 58.745 27.3348 59.7119 27.7955C60.6788 28.2561 61.5437 28.9055 62.2557 29.7055C62.9677 30.5056 63.5125 31.44 63.8578 32.4538C64.2031 33.4675 64.3421 34.5402 64.2666 35.6085C64.36 37.7351 63.6095 39.8125 62.1784 41.3883C60.7474 42.9641 58.7516 43.9107 56.6259 44.0218V44.1935Z" fill="#320046"/>
</svg>
