<svg width="24" height="24" viewBox="0 0 24 24" fill="none" xmlns="http://www.w3.org/2000/svg">
<path fill-rule="evenodd" clip-rule="evenodd" d="M12.0153 0.0452289C9.16289 0.0422629 6.40272 1.07862 4.22938 2.96859C2.05603 4.85856 0.611577 7.47859 0.154879 10.3592C-0.30182 13.2397 0.25909 16.1925 1.73708 18.6885C3.21506 21.1844 5.51353 23.0602 8.22056 23.9798C8.8174 24.0929 9.03845 23.7084 9.03845 23.3843C9.03845 23.0601 9.03845 22.3214 9.03845 21.2961C5.70059 22.05 4.99323 19.6528 4.99323 19.6528C4.77081 18.9098 4.29831 18.2714 3.65956 17.8511C2.57641 17.0972 3.74798 17.0972 3.74798 17.0972C4.12767 17.1521 4.49017 17.2946 4.80804 17.514C5.12591 17.7335 5.39082 18.024 5.5827 18.3637C5.74573 18.6661 5.96552 18.9326 6.22948 19.148C6.49344 19.3633 6.79637 19.5232 7.12087 19.6184C7.44537 19.7137 7.78505 19.7424 8.12044 19.703C8.45583 19.6637 8.78032 19.5569 9.07528 19.3889C9.12153 18.7688 9.38285 18.1859 9.81211 17.7455C7.14478 17.4364 4.34481 16.3811 4.34481 11.6771C4.3265 10.4581 4.76707 9.27857 5.57532 8.38276C5.21462 7.32298 5.25671 6.16318 5.69322 5.13369C5.69322 5.13369 6.70268 4.80198 8.99423 6.39259C10.962 5.83985 13.039 5.83985 15.0068 6.39259C17.2983 4.80198 18.3004 5.13369 18.3004 5.13369C18.7415 6.16172 18.7863 7.32238 18.4257 8.38276C19.234 9.27857 19.6745 10.4581 19.6562 11.6771C19.6562 16.3961 16.8489 17.4289 14.1742 17.7078C14.461 18.0028 14.6824 18.3574 14.8236 18.7476C14.9647 19.1378 15.0221 19.5544 14.9921 19.9694C14.9921 21.6127 14.9921 22.9395 14.9921 23.339C14.9921 23.7386 15.2057 24.0477 15.8173 23.9346C18.5158 23.0063 20.8043 21.1275 22.2745 18.6332C23.7447 16.139 24.3011 13.1915 23.8444 10.3165C23.3877 7.44153 21.9477 4.82602 19.781 2.93647C17.6144 1.04692 14.8622 0.00622545 12.0153 0V0.0452289Z" fill="#320046"/>
</svg>
