<svg width="24" height="21" viewBox="0 0 24 21" fill="none" xmlns="http://www.w3.org/2000/svg">
<path d="M21.543 5.05884C21.5576 5.27931 21.5576 5.49978 21.5576 5.72228C21.5576 12.5019 16.6045 20.3209 7.54759 20.3209V20.3169C4.87215 20.3209 2.25229 19.5224 0 18.0167C0.389031 18.0654 0.780012 18.0898 1.17197 18.0908C3.38915 18.0929 5.54296 17.3177 7.28726 15.8902C5.18026 15.8486 3.3326 14.4171 2.68714 12.3272C3.42523 12.4755 4.18574 12.445 4.91018 12.2388C2.61304 11.7552 0.96039 9.6521 0.96039 7.20968C0.96039 7.18732 0.96039 7.16599 0.96039 7.14465C1.64485 7.5419 2.41121 7.76237 3.19512 7.78675C1.03157 6.28005 0.364656 3.28087 1.67118 0.935986C4.17111 4.14141 7.8596 6.09006 11.8191 6.29631C11.4223 4.51428 11.9644 2.6469 13.2436 1.39419C15.2268 -0.548364 18.3459 -0.448797 20.2101 1.61669C21.3129 1.39013 22.3698 0.968498 23.337 0.3711C22.9694 1.55878 22.2001 2.56765 21.1725 3.20874C22.1484 3.08885 23.102 2.81657 24 2.40103C23.3389 3.43327 22.5063 4.33241 21.543 5.05884Z" fill="#320046"/>
</svg>
