<svg width="26" height="24" viewBox="0 0 26 24" fill="none" xmlns="http://www.w3.org/2000/svg">
<path d="M25.2221 9.10625L21.6242 2.89375C20.5878 1.10306 18.6711 0 16.5972 0H9.40158C7.32774 0 5.41196 1.10306 4.37553 2.89375L0.777694 9.10625C-0.258743 10.8969 -0.258743 13.1031 0.777694 14.8928L4.37553 21.1062C5.41196 22.8969 7.3287 24 9.40158 24H16.5972C18.6711 24 20.5869 22.8969 21.6233 21.1062L25.2211 14.8928C26.2576 13.1021 26.2576 10.896 25.2211 9.10625H25.2221ZM19.606 8.9267H17.7754C17.7754 8.9267 17.7707 8.92002 17.7678 8.9162C17.7161 8.92097 17.6653 8.92479 17.6126 8.9267H13.691C13.554 8.9267 13.4199 8.93625 13.2887 8.9544C12.735 9.0308 12.2312 9.26383 11.8241 9.60764C11.5559 9.83303 11.3298 10.1062 11.1583 10.4146C11.1468 10.4347 11.1248 10.4767 11.1248 10.4767C11.1191 10.4872 11.0329 10.6677 11.0252 10.6878C11.0147 10.7117 11.0051 10.7355 10.9955 10.7604H18.6433L17.536 12.8691H10.9821L11.0587 13.0142C11.1009 13.1069 11.1488 13.1967 11.2005 13.2836C11.4045 13.6264 11.6775 13.9234 12.0013 14.1555C12.4764 14.4974 13.0607 14.6989 13.692 14.6989H16.5752L15.4688 16.8048C15.4688 16.8048 13.508 16.8029 13.532 16.801C13.3605 16.7962 13.1919 16.7819 13.0262 16.7599L14.8089 20.156C14.737 20.1608 14.6642 20.1627 14.5905 20.1627C14.3855 20.1627 14.1843 20.1455 13.9889 20.1121C13.9104 20.0987 13.8328 20.0834 13.7561 20.0643C13.7035 20.0519 13.6508 20.0376 13.599 20.0232C12.9879 19.8475 12.4448 19.5133 12.0157 19.0692C11.8145 18.861 11.6392 18.6279 11.4936 18.3758L11.3652 18.1304L9.3805 14.3494L4.99049 5.98615C5.00294 5.98615 5.23092 5.98329 5.38227 5.98329C6.08536 6.01576 6.73481 6.25165 7.2741 6.63271C7.3584 6.69288 7.44077 6.75591 7.52028 6.82372C7.81723 7.07489 8.07202 7.37286 8.27318 7.70712L9.23586 9.54079C9.34602 9.32686 9.47054 9.12248 9.60944 8.92766C10.3441 7.89717 11.4601 7.15702 12.7523 6.91253C13.0569 6.85523 13.3711 6.82467 13.6929 6.82467H20.7095C20.7037 6.83804 19.6069 8.92861 19.6069 8.92861L19.606 8.9267Z" fill="#320046"/>
</svg>
