<?xml version="1.0" encoding="UTF-8"?>
<svg id="_イヤー_2" xmlns="http://www.w3.org/2000/svg" viewBox="0 0 163.03 150.94">
  <defs>
    <style>
      .cls-1 {
        fill: black; 
      }

      @media (prefers-color-scheme: dark) {
        .cls-1 {
          fill: white; 
        }
      }
    </style>
  </defs>
  <g id="logo_white">
    <path class="cls-1" d="M104.07,3.6c11.68,0,22.56,6.28,28.4,16.39l22.56,39.07c5.84,10.11,5.84,22.68,0,32.79l-22.56,39.07c-5.84,10.11-16.72,16.39-28.4,16.39H58.95c-11.68,0-22.56-6.28-28.4-16.39L8,91.86c-5.84-10.11-5.84-22.68,0-32.79L30.56,20C36.4,9.89,47.28,3.6,58.95,3.6h45.12m0-3.6H58.95c-13,0-25.02,6.94-31.52,18.2L4.88,57.27c-6.5,11.26-6.5,25.13,0,36.39l22.56,39.07c6.5,11.26,18.52,18.2,31.52,18.2h45.12c13,0,25.02-6.94,31.52-18.2l22.56-39.07c6.5-11.26,6.5-25.13,0-36.39l-22.56-39.07C129.09,6.94,117.07,0,104.07,0h0Z"/>
    <path class="cls-1" d="M85.85,42.91c-2.01,0-3.98,.19-5.9,.55-8.1,1.54-15.1,6.2-19.71,12.68-.87,1.22-1.65,2.51-2.34,3.86l-6.03-11.53c-1.26-2.1-2.86-3.98-4.72-5.56-.5-.42-1.01-.82-1.54-1.2-3.38-2.4-7.45-3.88-11.86-4.09-.95,0-2.38,.01-2.46,.02l27.53,52.59,12.45,23.78,.81,1.54h0c.91,1.59,2.01,3.05,3.27,4.37,2.69,2.8,6.09,4.9,9.93,6,.33,.1,.65,.18,.98,.26,.48,.12,.97,.21,1.46,.3,1.23,.21,2.48,.32,3.77,.32,.46,0,.91-.01,1.37-.04l-11.18-21.36c1.04,.14,2.1,.23,3.17,.26-.15,0,12.15,.02,12.15,.02l6.94-13.24h-18.08c-3.96,0-7.62-1.27-10.6-3.42-2.03-1.46-3.74-3.33-5.02-5.49-.33-.55-.62-1.11-.89-1.69l-.48-.91h41.1l6.95-13.26h-47.96c.06-.15,.12-.3,.19-.45,.05-.13,.59-1.26,.63-1.32,0,0,.14-.26,.21-.39,1.07-1.94,2.49-3.65,4.17-5.07,2.55-2.16,5.71-3.63,9.18-4.11,.83-.12,1.67-.18,2.52-.18h24.59c.33-.01,.65-.04,.97-.06,.02,.02,.03,.04,.05,.06h11.48s6.88-13.15,6.91-13.23h-44Z"/>
  </g>
</svg>